<svg width="23" height="16" viewBox="0 0 23 16" fill="none" xmlns="http://www.w3.org/2000/svg">
<g clip-path="url(#clip0_12_567)">
<path d="M21.8747 1.62579L15.1816 8.27575L21.8747 14.9257C21.9957 14.6728 22.0691 14.3932 22.0691 14.0947V2.45678C22.0691 2.15821 21.9957 1.87868 21.8747 1.62579Z" fill="#828392"/>
<path d="M20.129 0.517212H1.93939C1.64081 0.517212 1.36129 0.590617 1.1084 0.711609L9.66284 9.22294C10.4192 9.97932 11.6492 9.97932 12.4056 9.22294L20.96 0.711609C20.7071 0.590617 20.4276 0.517212 20.129 0.517212Z" fill="#828392"/>
<path d="M0.194397 1.62579C0.0734052 1.87868 0 2.15821 0 2.45678V14.0947C0 14.3933 0.0734052 14.6729 0.194397 14.9257L6.88746 8.27575L0.194397 1.62579Z" fill="#828392"/>
<path d="M14.267 9.19019L13.3199 10.1373C12.0596 11.3976 10.0088 11.3976 8.74853 10.1373L7.80146 9.19019L1.1084 15.8401C1.36129 15.9611 1.64081 16.0345 1.93939 16.0345H20.129C20.4276 16.0345 20.7071 15.9611 20.96 15.8401L14.267 9.19019Z" fill="#828392"/>
</g>
<defs>
<clipPath id="clip0_12_567">
<rect width="22.069" height="16" fill="white"/>
</clipPath>
</defs>
</svg>
