<svg width="10" height="10" viewBox="0 0 10 10" fill="none" xmlns="http://www.w3.org/2000/svg">
<path d="M1.41691 8.23885H8.91691C8.99284 8.23862 9.06727 8.21767 9.13219 8.17828C9.1971 8.13889 9.25005 8.08254 9.28532 8.01529C9.32059 7.94805 9.33686 7.87245 9.33237 7.79665C9.32787 7.72085 9.30279 7.64771 9.25982 7.5851L5.50982 2.16844C5.35441 1.94385 4.98024 1.94385 4.82441 2.16844L1.07441 7.5851C1.031 7.64758 1.00554 7.72076 1.00081 7.79669C0.996071 7.87261 1.01223 7.94839 1.04754 8.01577C1.08284 8.08316 1.13594 8.13958 1.20106 8.17891C1.26618 8.21824 1.34083 8.23897 1.41691 8.23885Z" fill="#50D711"/>
</svg>
