<svg width="32" height="32" viewBox="0 0 32 32" fill="none" xmlns="http://www.w3.org/2000/svg">
<g id="mage:question-mark-circle-fill">
<path id="Vector" d="M15.9999 2.33333C13.2969 2.33333 10.6546 3.13486 8.40713 4.63658C6.15966 6.13829 4.40797 8.27273 3.37357 10.77C2.33917 13.2672 2.06853 16.0152 2.59586 18.6662C3.12319 21.3173 4.42481 23.7525 6.33613 25.6638C8.24745 27.5751 10.6826 28.8767 13.3337 29.4041C15.9848 29.9314 18.7327 29.6607 21.2299 28.6263C23.7272 27.5919 25.8616 25.8403 27.3633 23.5928C28.8651 21.3453 29.6666 18.703 29.6666 16C29.6631 12.3765 28.222 8.90233 25.6598 6.3401C23.0976 3.77787 19.6235 2.33686 15.9999 2.33333ZM15.8533 24.7333C15.4996 24.7333 15.1605 24.5929 14.9104 24.3428C14.6604 24.0928 14.5199 23.7536 14.5199 23.4C14.5199 23.0464 14.6604 22.7072 14.9104 22.4572C15.1605 22.2071 15.4996 22.0667 15.8533 22.0667C16.2069 22.0667 16.546 22.2071 16.7961 22.4572C17.0461 22.7072 17.1866 23.0464 17.1866 23.4C17.1866 23.7536 17.0461 24.0928 16.7961 24.3428C16.546 24.5929 16.2069 24.7333 15.8533 24.7333ZM20.9466 14.9733C20.6726 15.6089 20.2691 16.1803 19.7617 16.6509C19.2543 17.1216 18.6542 17.4812 17.9999 17.7067C17.7817 17.8019 17.5929 17.9538 17.4533 18.1467C17.2975 18.3544 17.2133 18.607 17.2133 18.8667V19.8133C17.2133 20.1669 17.0728 20.5061 16.8227 20.7561C16.5727 21.0062 16.2335 21.1467 15.8799 21.1467C15.5263 21.1467 15.1872 21.0062 14.9371 20.7561C14.6871 20.5061 14.5466 20.1669 14.5466 19.8133V18.8267C14.553 18.0261 14.8094 17.2476 15.2799 16.6C15.7435 15.9846 16.3792 15.5206 17.1066 15.2667C17.4224 15.1658 17.7101 14.9922 17.9466 14.76C18.1814 14.5491 18.3674 14.2895 18.4918 13.9994C18.6161 13.7092 18.6758 13.3955 18.6666 13.08C18.6625 12.7616 18.5897 12.4477 18.4533 12.16C18.2536 11.7928 17.9704 11.4776 17.6266 11.24C17.2759 10.986 16.8686 10.8213 16.4399 10.76C15.788 10.636 15.1134 10.7297 14.5199 11.0267C13.9409 11.3123 13.4722 11.7809 13.1866 12.36C13.0398 12.6818 12.7713 12.9321 12.4399 13.0559C12.1086 13.1797 11.7417 13.1667 11.4199 13.02C11.0981 12.8732 10.8478 12.6047 10.724 12.2734C10.6003 11.942 10.6132 11.5751 10.7599 11.2533C11.2749 10.1233 12.1534 9.19812 13.2553 8.62541C14.3572 8.0527 15.6192 7.86538 16.8399 8.09333C17.667 8.22023 18.4526 8.53996 19.1333 9.02666C19.8304 9.523 20.4013 10.1761 20.7999 10.9333C21.1058 11.5646 21.2736 12.2539 21.2919 12.9552C21.3103 13.6564 21.179 14.3535 20.9066 15L20.9466 14.9733Z" fill="#008CFF"/>
</g>
</svg>
