<svg width="40" height="40" viewBox="0 0 40 40" fill="none" xmlns="http://www.w3.org/2000/svg">
<circle cx="20" cy="20" r="20" fill="#008CFF"/>
<g clip-path="url(#clip0_29_69)">
<path d="M27.1188 22.4812C26.167 21.9344 25.0881 21.7702 24.0228 21.7319C23.134 21.7061 21.802 21.1233 21.802 19.4988C21.802 18.2928 22.7785 17.3163 24.0351 17.2657C25.1005 17.2274 26.1794 17.0632 27.1311 16.5164C28.4251 15.7679 29.3695 14.5368 29.7573 13.0931C30.1451 11.6494 29.9447 10.1109 29.2 8.81468C28.445 7.52007 27.2082 6.57701 25.76 6.19165C24.3117 5.80628 22.7698 6.00997 21.4713 6.75818C20.6124 7.25165 19.8994 7.96357 19.4047 8.82168C18.9099 9.6798 18.651 10.6535 18.6543 11.6441C18.6543 12.7353 19.048 13.7377 19.543 14.6771C19.9615 15.4634 20.1651 16.9226 18.7443 17.7483C17.6778 18.3558 16.3458 17.9756 15.6854 16.9102C15.1274 16.0091 14.4546 15.1721 13.5029 14.6264C12.8622 14.2555 12.1547 14.0144 11.4208 13.9169C10.6869 13.8194 9.94097 13.8675 9.22565 14.0584C8.51033 14.2492 7.83963 14.5792 7.25185 15.0293C6.66407 15.4794 6.17073 16.041 5.80001 16.6818C5.05578 17.978 4.85575 19.5164 5.24376 20.9599C5.63177 22.4033 6.57617 23.6341 7.87001 24.3824C8.7273 24.8745 9.69853 25.1334 10.687 25.1334C11.6755 25.1334 12.6467 24.8745 13.504 24.3824C14.4558 23.8368 15.1285 22.9987 15.6865 22.0987C16.1433 21.3629 17.2986 20.4236 18.7443 21.2617C19.8108 21.8703 20.1404 23.2158 19.5441 24.3329C19.0491 25.2588 18.6554 26.2736 18.6554 27.3648C18.6557 28.8588 19.2492 30.2917 20.3054 31.3483C21.3616 32.405 22.7942 32.999 24.2883 32.9999C25.7823 32.9993 27.215 32.4056 28.2714 31.3491C29.3279 30.2927 29.9217 28.86 29.9223 27.3659C29.928 26.3765 29.6716 25.4032 29.1792 24.545C28.6868 23.6868 27.9759 22.9755 27.1188 22.4812Z" fill="white"/>
</g>
<defs>
<clipPath id="clip0_29_69">
<rect width="27" height="27" fill="white" transform="translate(4 6)"/>
</clipPath>
</defs>
</svg>
