<svg width="158" height="40" viewBox="0 0 158 40" fill="none" xmlns="http://www.w3.org/2000/svg">
<circle cx="20" cy="20" r="20" fill="#008CFF"/>
<g clip-path="url(#clip0_40_3)">
<path d="M27.1188 22.4812C26.167 21.9344 25.0881 21.7702 24.0228 21.7319C23.134 21.7061 21.802 21.1233 21.802 19.4988C21.802 18.2928 22.7785 17.3163 24.0351 17.2657C25.1005 17.2274 26.1794 17.0632 27.1311 16.5164C28.4251 15.7679 29.3695 14.5368 29.7573 13.0931C30.1451 11.6494 29.9447 10.1109 29.2 8.81468C28.445 7.52007 27.2082 6.57701 25.76 6.19165C24.3117 5.80628 22.7698 6.00997 21.4713 6.75818C20.6124 7.25165 19.8994 7.96357 19.4047 8.82168C18.9099 9.6798 18.651 10.6535 18.6543 11.6441C18.6543 12.7353 19.048 13.7377 19.543 14.6771C19.9615 15.4634 20.1651 16.9226 18.7443 17.7483C17.6778 18.3558 16.3458 17.9756 15.6854 16.9102C15.1274 16.0091 14.4546 15.1721 13.5029 14.6264C12.8622 14.2555 12.1547 14.0144 11.4208 13.9169C10.6869 13.8194 9.94097 13.8675 9.22565 14.0584C8.51033 14.2492 7.83963 14.5792 7.25185 15.0293C6.66407 15.4794 6.17073 16.041 5.80001 16.6818C5.05578 17.978 4.85575 19.5164 5.24376 20.9599C5.63177 22.4033 6.57617 23.6341 7.87001 24.3824C8.7273 24.8745 9.69853 25.1334 10.687 25.1334C11.6755 25.1334 12.6467 24.8745 13.504 24.3824C14.4558 23.8368 15.1285 22.9987 15.6865 22.0987C16.1433 21.3629 17.2986 20.4236 18.7443 21.2617C19.8108 21.8703 20.1404 23.2158 19.5441 24.3329C19.0491 25.2588 18.6554 26.2736 18.6554 27.3648C18.6557 28.8588 19.2492 30.2917 20.3054 31.3483C21.3616 32.405 22.7942 32.999 24.2883 32.9999C25.7823 32.9993 27.215 32.4056 28.2714 31.3491C29.3279 30.2927 29.9217 28.86 29.9223 27.3659C29.928 26.3765 29.6716 25.4032 29.1792 24.545C28.6868 23.6868 27.9759 22.9755 27.1188 22.4812Z" fill="white"/>
</g>
<path d="M48.8366 13.5455L51.5499 18.131H51.655L54.3814 13.5455H57.5939L53.4879 20.2727L57.6859 27H54.4142L51.655 22.4078H51.5499L48.7907 27H45.5321L49.7433 20.2727L45.611 13.5455H48.8366ZM59.394 27V13.5455H64.7022C65.7183 13.5455 66.5855 13.7272 67.3038 14.0907C68.0265 14.4499 68.5761 14.9601 68.9528 15.6214C69.3338 16.2784 69.5243 17.0514 69.5243 17.9405C69.5243 18.834 69.3316 19.6026 68.9462 20.2464C68.5608 20.8859 68.0024 21.3764 67.271 21.718C66.5439 22.0597 65.6636 22.2305 64.63 22.2305H61.0758V19.9442H64.1701C64.7132 19.9442 65.1643 19.8698 65.5234 19.7209C65.8826 19.572 66.1497 19.3486 66.3249 19.0508C66.5045 18.753 66.5943 18.3829 66.5943 17.9405C66.5943 17.4938 66.5045 17.1171 66.3249 16.8105C66.1497 16.504 65.8804 16.2718 65.5169 16.1142C65.1577 15.9521 64.7044 15.8711 64.157 15.8711H62.2386V27H59.394ZM66.66 20.8771L70.0039 27H66.8636L63.592 20.8771H66.66ZM71.5346 27V13.5455H76.8429C77.8633 13.5455 78.7327 13.7404 79.451 14.1301C80.1693 14.5156 80.7167 15.0521 81.0934 15.7397C81.4744 16.4229 81.665 17.2113 81.665 18.1048C81.665 18.9982 81.4722 19.7866 81.0868 20.4698C80.7014 21.1531 80.143 21.6852 79.4116 22.0662C78.6845 22.4473 77.8042 22.6378 76.7706 22.6378H73.3873V20.3581H76.3107C76.8582 20.3581 77.3093 20.264 77.6641 20.0756C78.0232 19.8829 78.2904 19.618 78.4656 19.2807C78.6451 18.9391 78.7349 18.5471 78.7349 18.1048C78.7349 17.658 78.6451 17.2682 78.4656 16.9354C78.2904 16.5981 78.0232 16.3375 77.6641 16.1536C77.3049 15.9653 76.8494 15.8711 76.2976 15.8711H74.3793V27H71.5346ZM89.4039 19.1625V21.383H83.2679V19.1625H89.4039ZM91.8413 27V13.5455H97.1495C98.17 13.5455 99.0394 13.7404 99.7576 14.1301C100.476 14.5156 101.023 15.0521 101.4 15.7397C101.781 16.4229 101.972 17.2113 101.972 18.1048C101.972 18.9982 101.779 19.7866 101.393 20.4698C101.008 21.1531 100.45 21.6852 99.7182 22.0662C98.9912 22.4473 98.1109 22.6378 97.0772 22.6378H93.6939V20.3581H96.6174C97.1648 20.3581 97.6159 20.264 97.9707 20.0756C98.3298 19.8829 98.597 19.618 98.7722 19.2807C98.9518 18.9391 99.0415 18.5471 99.0415 18.1048C99.0415 17.658 98.9518 17.2682 98.7722 16.9354C98.597 16.5981 98.3298 16.3375 97.9707 16.1536C97.6116 15.9653 97.1561 15.8711 96.6042 15.8711H94.6859V27H91.8413ZM103.819 27V13.5455H109.128C110.144 13.5455 111.011 13.7272 111.729 14.0907C112.452 14.4499 113.001 14.9601 113.378 15.6214C113.759 16.2784 113.95 17.0514 113.95 17.9405C113.95 18.834 113.757 19.6026 113.371 20.2464C112.986 20.8859 112.428 21.3764 111.696 21.718C110.969 22.0597 110.089 22.2305 109.055 22.2305H105.501V19.9442H108.595C109.138 19.9442 109.59 19.8698 109.949 19.7209C110.308 19.572 110.575 19.3486 110.75 19.0508C110.93 18.753 111.02 18.3829 111.02 17.9405C111.02 17.4938 110.93 17.1171 110.75 16.8105C110.575 16.504 110.306 16.2718 109.942 16.1142C109.583 15.9521 109.13 15.8711 108.582 15.8711H106.664V27H103.819ZM111.085 20.8771L114.429 27H111.289L108.017 20.8771H111.085ZM118.805 13.5455V27H115.96V13.5455H118.805ZM133.016 18.2559H130.139C130.086 17.8836 129.979 17.5529 129.817 17.2638C129.655 16.9704 129.447 16.7208 129.193 16.5149C128.939 16.3091 128.645 16.1514 128.312 16.0419C127.984 15.9324 127.627 15.8777 127.242 15.8777C126.545 15.8777 125.939 16.0507 125.422 16.3967C124.905 16.7383 124.504 17.2376 124.22 17.8945C123.935 18.5471 123.793 19.3398 123.793 20.2727C123.793 21.2319 123.935 22.0378 124.22 22.6903C124.509 23.3429 124.912 23.8356 125.428 24.1685C125.945 24.5014 126.543 24.6678 127.222 24.6678C127.603 24.6678 127.955 24.6174 128.28 24.5167C128.608 24.416 128.899 24.2692 129.153 24.0765C129.407 23.8794 129.618 23.6407 129.784 23.3604C129.955 23.0801 130.073 22.7604 130.139 22.4013L133.016 22.4144C132.942 23.032 132.756 23.6276 132.458 24.2013C132.164 24.7707 131.768 25.281 131.269 25.7321C130.774 26.1788 130.183 26.5336 129.495 26.7963C128.812 27.0547 128.039 27.1839 127.176 27.1839C125.976 27.1839 124.903 26.9124 123.957 26.3693C123.015 25.8262 122.271 25.0401 121.723 24.0108C121.18 22.9816 120.908 21.7356 120.908 20.2727C120.908 18.8055 121.184 17.5573 121.736 16.5281C122.288 15.4988 123.037 14.7148 123.983 14.1761C124.929 13.633 125.993 13.3615 127.176 13.3615C127.955 13.3615 128.678 13.471 129.344 13.69C130.014 13.909 130.607 14.2287 131.124 14.6491C131.641 15.0652 132.061 15.5755 132.386 16.1799C132.714 16.7843 132.924 17.4763 133.016 18.2559ZM135.056 27V13.5455H144.122V15.8908H137.901V19.0968H143.656V21.4421H137.901V24.6547H144.148V27H135.056ZM153.683 17.4149C153.63 16.885 153.404 16.4733 153.006 16.1799C152.607 15.8864 152.066 15.7397 151.383 15.7397C150.919 15.7397 150.527 15.8054 150.207 15.9368C149.888 16.0638 149.642 16.2412 149.471 16.4689C149.305 16.6967 149.222 16.9551 149.222 17.2441C149.213 17.485 149.263 17.6953 149.373 17.8748C149.487 18.0544 149.642 18.2099 149.839 18.3413C150.036 18.4683 150.264 18.58 150.523 18.6763C150.781 18.7683 151.057 18.8471 151.35 18.9128L152.559 19.2019C153.146 19.3333 153.685 19.5085 154.175 19.7274C154.666 19.9464 155.091 20.2158 155.45 20.5355C155.809 20.8552 156.087 21.2319 156.284 21.6655C156.486 22.0991 156.589 22.5962 156.593 23.1568C156.589 23.9802 156.378 24.6941 155.962 25.2985C155.551 25.8985 154.955 26.3649 154.175 26.6978C153.4 27.0263 152.465 27.1905 151.37 27.1905C150.284 27.1905 149.338 27.0241 148.532 26.6912C147.731 26.3584 147.104 25.8656 146.653 25.2131C146.206 24.5561 145.972 23.7437 145.95 22.7757H148.703C148.733 23.2269 148.863 23.6035 149.09 23.9057C149.323 24.2035 149.631 24.4291 150.017 24.5824C150.407 24.7313 150.847 24.8058 151.337 24.8058C151.819 24.8058 152.237 24.7357 152.592 24.5955C152.951 24.4554 153.229 24.2605 153.426 24.0108C153.623 23.7612 153.722 23.4743 153.722 23.1502C153.722 22.848 153.632 22.594 153.453 22.3881C153.277 22.1823 153.019 22.0071 152.677 21.8626C152.34 21.718 151.926 21.5866 151.436 21.4684L149.971 21.1005C148.836 20.8246 147.941 20.3932 147.284 19.8063C146.627 19.2194 146.301 18.4289 146.305 17.4347C146.301 16.62 146.517 15.9083 146.955 15.2995C147.398 14.6908 148.004 14.2156 148.775 13.8739C149.546 13.5323 150.422 13.3615 151.403 13.3615C152.402 13.3615 153.273 13.5323 154.018 13.8739C154.767 14.2156 155.349 14.6908 155.765 15.2995C156.181 15.9083 156.396 16.6135 156.409 17.4149H153.683Z" fill="white"/>
<defs>
<clipPath id="clip0_40_3">
<rect width="27" height="27" fill="white" transform="translate(4 6)"/>
</clipPath>
</defs>
</svg>
